<svg width="48" height="48" viewBox="0 0 48 48" fill="none" xmlns="http://www.w3.org/2000/svg">
<g id="Game=Pinpoint, Mode=Light, Size=Medium, Played=True">
<g clip-path="url(#clip0_20072_314216)">
<g id="Border wrapper">
<g clip-path="url(#clip1_20072_314216)">
<g id="clues" clip-path="url(#clip2_20072_314216)">
<g id="01">
<rect width="45" height="11.25" transform="translate(1.5 1.5)" fill="#A8CFFF"/>
</g>
<g id="02" clip-path="url(#clip3_20072_314216)">
<rect width="45" height="11.25" transform="translate(1.5 12.75)" fill="#78B3FA"/>
</g>
<g id="04">
<rect width="45" height="11.25" transform="translate(1.5 24)" fill="#4997F5"/>
</g>
<g id="05">
<rect width="45" height="11.25" transform="translate(1.5 35.25)" fill="#2A7ADB"/>
</g>
</g>
</g>
<path d="M2.14124 2.14124C1.39288 2.88961 1.06076 3.83855 0.903135 5.01098C0.749971 6.15019 0.749984 7.60582 0.75 9.44358L0.75 9.5V38.5L0.75 38.5564C0.749984 40.3942 0.749971 41.8498 0.903135 42.989C1.06076 44.1614 1.39288 45.1104 2.14124 45.8588C2.88961 46.6071 3.83855 46.9392 5.01098 47.0969C6.15018 47.25 7.60579 47.25 9.44352 47.25H9.5H38.5H38.5565C40.3942 47.25 41.8498 47.25 42.989 47.0969C44.1614 46.9392 45.1104 46.6071 45.8588 45.8588C46.6071 45.1104 46.9392 44.1614 47.0969 42.989C47.25 41.8498 47.25 40.3942 47.25 38.5565V38.5V9.5V9.44352C47.25 7.60579 47.25 6.15018 47.0969 5.01098C46.9392 3.83855 46.6071 2.88961 45.8588 2.14124C45.1104 1.39288 44.1614 1.06076 42.989 0.903135C41.8498 0.749971 40.3942 0.749984 38.5564 0.75L38.5 0.75H9.5L9.44358 0.75C7.60582 0.749984 6.15019 0.749971 5.01098 0.903135C3.83856 1.06076 2.88961 1.39288 2.14124 2.14124Z" stroke="black" stroke-opacity="0.9" stroke-width="1.5" stroke-linejoin="round"/>
</g>
<g id="Success">
<g id="Background">
<path d="M1.5 5.5C1.5 3.29086 3.29086 1.5 5.5 1.5H42.5C44.7091 1.5 46.5 3.29086 46.5 5.5V42.5C46.5 44.7091 44.7091 46.5 42.5 46.5H5.5C3.29086 46.5 1.5 44.7091 1.5 42.5V5.5Z" fill="white" fill-opacity="0.6"/>
<path d="M5.5 0.75C2.87665 0.75 0.75 2.87665 0.75 5.5V42.5C0.75 45.1234 2.87665 47.25 5.5 47.25H42.5C45.1233 47.25 47.25 45.1234 47.25 42.5V5.5C47.25 2.87665 45.1234 0.75 42.5 0.75H5.5Z" stroke="white" stroke-opacity="0.6" stroke-width="1.5"/>
</g>
<g id="Signal Success">
<path id="Icon" d="M23.9987 12.3333C17.582 12.3333 12.332 17.5833 12.332 23.9999C12.332 30.4166 17.582 35.6666 23.9987 35.6666C30.4154 35.6666 35.6654 30.4166 35.6654 23.9999C35.6654 17.5833 30.4154 12.3333 23.9987 12.3333ZM22.5987 29.8333L18.1654 25.3999L19.7987 23.7666L22.3654 26.3333L27.9654 19.3333H30.9987L22.5987 29.8333Z" fill="#057642"/>
<path id="Icon_2" opacity="0.7" d="M22.6013 29.8333L18.168 25.3999L19.8013 23.7666L22.368 26.3333L27.968 19.3333H31.0013L22.6013 29.8333Z" fill="white" fill-opacity="0.6"/>
</g>
</g>
</g>
</g>
<defs>
<clipPath id="clip0_20072_314216">
<path d="M0 8C0 4.22876 0 2.34315 1.17157 1.17157C2.34315 0 4.22876 0 8 0H40C43.7712 0 45.6569 0 46.8284 1.17157C48 2.34315 48 4.22876 48 8V40C48 43.7712 48 45.6569 46.8284 46.8284C45.6569 48 43.7712 48 40 48H8C4.22876 48 2.34315 48 1.17157 46.8284C0 45.6569 0 43.7712 0 40V8Z" fill="white"/>
</clipPath>
<clipPath id="clip1_20072_314216">
<path d="M1.5 9.5C1.5 5.72876 1.5 3.84315 2.67157 2.67157C3.84315 1.5 5.72876 1.5 9.5 1.5H38.5C42.2712 1.5 44.1569 1.5 45.3284 2.67157C46.5 3.84315 46.5 5.72876 46.5 9.5V38.5C46.5 42.2712 46.5 44.1569 45.3284 45.3284C44.1569 46.5 42.2712 46.5 38.5 46.5H9.5C5.72876 46.5 3.84315 46.5 2.67157 45.3284C1.5 44.1569 1.5 42.2712 1.5 38.5V9.5Z" fill="white"/>
</clipPath>
<clipPath id="clip2_20072_314216">
<rect width="45" height="45" fill="white" transform="translate(1.5 1.5)"/>
</clipPath>
<clipPath id="clip3_20072_314216">
<rect width="45" height="11.25" fill="white" transform="translate(1.5 12.75)"/>
</clipPath>
</defs>
</svg>
